<?xml version="1.0" encoding="utf-8"?>
<!-- Generator: Adobe Illustrator 24.1.0, SVG Export Plug-In . SVG Version: 6.00 Build 0)  -->
<svg version="1.1" id="Ebene_1" xmlns="http://www.w3.org/2000/svg" xmlns:xlink="http://www.w3.org/1999/xlink" x="0px" y="0px"
	 viewBox="0 0 1920 1920" style="enable-background:new 0 0 1920 1920;" xml:space="preserve">
<style type="text/css">
	.st0{fill:#A5D3FC;}
	.st1{fill:#D7ECFF;}
	.st2{fill:#262626;}
	.st3{fill:#D0E2EF;}
	.st4{fill:#FFFFFF;}
	.st5{opacity:0.65;}
	.st6{opacity:0.2;}
	.st7{fill:#007AFF;}
	.st8{opacity:0.5;}
</style>
<g>
	<path class="st0" d="M946.2,663c-246.3,10.6-202.8-5.8-413.8,69.8c-79.9,28.6-159.4,67.9-214.6,134.6
		c-68.2,82.5-90.3,197.9-82.6,306.6c3,42.8,10.7,86.4,31.6,123.4c53.9,95.1,187.6,134.6,293,145.8c202.9,21.6,406.4,14.1,610.2,6.5
		c122.2-4.6,242.6-17.3,326.5-109.9c48.1-53,73.3-124.3,87.7-195.7c15.6-77.4-18.8-196.1-60.3-263
		c-72.6-117.2-286.9-191.1-418.3-204L946.2,663z"/>
</g>
<g>
	<path class="st1" d="M1405.9,859.7c-55.1-70.3-137.2-117.6-224.2-138.9c-82-20.1-220.3-33.3-298.8,7c-58.3,29.9,28.2,66.4,63,68.8
		c33.5,2.3,67.1-3.2,100.6-3.2c65.6,0,128.7,21.1,186.8,50.2c46.6,23.3,108.7,86.4,161.6,89.1c14.2,0.7,29.7-6.9,33.7-20.5
		c3.7-12.7-3.5-25.9-11.1-36.7C1413.8,870,1409.9,864.8,1405.9,859.7z"/>
</g>
<g>
	<path class="st2" d="M688.2,926.9c-17.9,18.6-21.9,45.7-11.1,69.6c10.8,23.9,38.8,37.2,63,30.6c24.3-6.5,42.7-31.6,43.5-58
		c0.4-14.1-13.1-60.9-49-56.6C723.8,913.8,702.3,912.2,688.2,926.9z"/>
</g>
<g>
	<path class="st2" d="M1050,920.7c-18.1,18.8-22.2,46.3-11.3,70.5s39.2,37.6,63.8,31c24.6-6.6,43.2-32,44-58.8
		c0.4-14.3-13.3-61.7-49.6-57.3C1086.1,907.4,1064.3,905.8,1050,920.7z"/>
</g>
<g>
	<path class="st3" d="M698.2,941.2c-5.1,5.3-6.3,13.2-3.2,20c3.1,6.9,11.1,10.7,18.1,8.8c7-1.9,12.3-9.1,12.5-16.7
		c0.1-4.1-3.8-17.5-14.1-16.3C708.4,937.4,702.3,937,698.2,941.2z"/>
</g>
<g>
	<path class="st3" d="M1069.5,934.7c-5.1,5.3-6.3,13.2-3.2,20c3.1,6.9,11.1,10.7,18.1,8.8s12.3-9.1,12.5-16.7
		c0.1-4.1-3.8-17.5-14.1-16.3C1079.7,930.9,1073.6,930.5,1069.5,934.7z"/>
</g>
<g>
	<path class="st4" d="M882,1072.3c21.7,4.3,39.2,1.7,58.7-2.9c5.9-1.4,12.8-2.2,17.3,1.8c2.7,2.4,3.8,6.1,4.3,9.6
		c1.7,14.8-8.5,29.1-21.9,35.6c-13.4,6.5-29.1,6.3-43.6,3.3c-11.3-2.3-14.9-0.7-22.9-8.9c-8-8.2-19.2-26.9-14.2-37.3"/>
</g>
<g class="st5">
	<path class="st1" d="M342.7,526c-40.2,24.1-53.7,65.6-58.9,112.1c-5.2,46.5,7.7,95.6,38.5,131c39,44.8,84.4,44.7,142.7,56.7
		c26.8,5.5,55.7-3.1,80.5-14.4c30.2-13.8,45.8-33.9,56.9-65.1c15.2-42.5,42.3-70.5,31.1-114.2c-12.4-48.3-51.5-86.7-96.8-108.2
		c-45.2-21.5-65.1-32.7-115-27.7C401.5,498,360.2,515.5,342.7,526z"/>
</g>
<g>
	<path class="st4" d="M387.4,553.5c-15.5,3.5-29,14.9-34.9,29.6c-6,14.7-4.2,32.3,4.5,45.6c15.2-14.9,28.9-31.2,40.9-48.7
		c6.8-9.9,13.1-22.9,7.2-33.3"/>
</g>
<g>
	<path class="st1" d="M467,193.1c-33.3,20-44.4,54.3-48.7,92.8s6.4,79.1,31.8,108.4c32.3,37.1,69.9,37,118.2,46.9
		c22.2,4.6,46.1-2.5,66.7-11.9c25-11.5,37.9-28.1,47.1-53.9c12.5-35.2,35-58.3,25.8-94.5c-10.2-40-42.7-71.8-80.1-89.6
		s-53.9-27.1-95.2-23C515.8,169.9,481.5,184.4,467,193.1z"/>
</g>
<g>
	<path class="st4" d="M504.1,215.9c-12.8,2.9-24,12.3-28.9,24.5c-4.9,12.2-3.5,26.7,3.8,37.7c12.6-12.3,23.9-25.8,33.9-40.3
		c5.6-8.2,10.9-18.9,5.9-27.5"/>
</g>
<g>
	<path class="st1" d="M598.3,455.2c-23.1,13.9-30.9,37.7-33.8,64.4c-3,26.7,4.4,54.9,22.1,75.3c22.4,25.7,48.5,25.7,82,32.6
		c15.4,3.2,32-1.8,46.3-8.3c17.4-8,26.3-19.5,32.7-37.4c8.7-24.4,24.3-40.5,17.9-65.6c-7.1-27.8-29.6-49.8-55.6-62.2
		s-37.4-18.8-66.1-15.9C632.1,439.1,608.3,449.2,598.3,455.2z"/>
</g>
<g>
	<path class="st4" d="M624,471c-8.9,2-16.7,8.6-20.1,17c-3.4,8.5-2.4,18.6,2.6,26.2c8.7-8.5,16.6-17.9,23.5-28
		c3.9-5.7,7.6-13.1,4.1-19.1"/>
</g>
<g>
	<path class="st1" d="M1622.3,1140.5c-23.1,13.9-30.9,37.7-33.8,64.4s4.4,54.9,22.1,75.3c22.4,25.7,48.5,25.7,82,32.6
		c15.4,3.2,32-1.8,46.3-8.3c17.4-8,26.3-19.5,32.7-37.4c8.7-24.4,24.3-40.5,17.9-65.6c-7.1-27.8-29.6-49.8-55.6-62.2
		s-37.4-18.8-66.1-15.9C1656.1,1124.4,1632.4,1134.5,1622.3,1140.5z"/>
</g>
<g>
	<path class="st4" d="M1694.9,1153.7c-8.9,2-16.7,8.6-20.1,17c-3.4,8.5-2.4,18.6,2.6,26.2c8.7-8.5,16.6-17.9,23.5-28
		c3.9-5.7,7.6-13.1,4.1-19.1"/>
</g>
<g>
	<path class="st1" d="M302.3,317.5c-16,9.6-21.4,26.1-23.4,44.6c-2.1,18.5,3.1,38,15.3,52.1c15.5,17.8,33.6,17.8,56.8,22.6
		c10.6,2.2,22.2-1.2,32-5.7c12-5.5,18.2-13.5,22.6-25.9c6-16.9,16.8-28,12.4-45.4c-4.9-19.2-20.5-34.5-38.5-43.1
		c-18-8.6-25.9-13-45.7-11C325.7,306.4,309.3,313.4,302.3,317.5z"/>
</g>
<g>
	<path class="st4" d="M320.1,328.5c-6.2,1.4-11.5,5.9-13.9,11.8c-2.4,5.9-1.7,12.9,1.8,18.1c6-5.9,11.5-12.4,16.3-19.4
		c2.7-3.9,5.2-9.1,2.9-13.2"/>
</g>
<g>
	<path class="st1" d="M1659.9,876.5c-16,9.6-21.4,26.1-23.4,44.6s3.1,38,15.3,52.1c15.5,17.8,33.6,17.8,56.8,22.6
		c10.6,2.2,22.2-1.2,32-5.7c12-5.5,18.2-13.5,22.6-25.9c6-16.9,16.8-28,12.4-45.4c-4.9-19.2-20.5-34.5-38.5-43.1
		c-18-8.6-25.9-13-45.7-11C1683.3,865.3,1666.9,872.3,1659.9,876.5z"/>
</g>
<g class="st6">
	<path class="st7" d="M1549.8,1075.5c8.2,76.1-23.5,153.4-75.8,209.2c-52.4,55.8-123.7,91.4-197.9,110.2
		c-48.7,12.3-98.8,17.9-148.9,21.8c-215.3,17-432.9,5.3-645.2-34.7c-26.4-5-56.4-13.2-67.6-37.5c-2.5-5.4-3.6-12.3,0.3-16.7
		c5.2-6,14.7-3.4,22.1-0.5c73.9,28.9,154.1,36.6,233.2,42.3c170.6,12.2,347.9,15.2,505.7-50.8c47.3-19.8,91.8-45.4,135.9-71.4
		c55.1-32.6,113-69.5,138.7-128.2c6.8-15.5,11.1-32.2,19-47.2c7.9-15,20.4-28.9,36.9-32.7s36.6,5.9,39.3,22.6"/>
</g>
<g>
	<path class="st4" d="M1677.7,887.4c-6.2,1.4-11.5,5.9-13.9,11.8s-1.7,12.9,1.8,18.1c6-5.9,11.5-12.4,16.3-19.4
		c2.7-3.9,5.2-9.1,2.9-13.2"/>
</g>
<g class="st8">
	<path class="st1" d="M1377.3,1191.4c-51,30.6-68.1,83.1-74.6,142.1c-6.6,59,9.7,121.2,48.8,166c49.4,56.8,107,56.6,180.9,71.9
		c33.9,7,70.6-3.9,102.1-18.3c38.3-17.5,58-43,72.1-82.6c19.2-53.9,53.6-89.3,39.5-144.8c-15.7-61.3-65.3-109.9-122.7-137.2
		c-57.3-27.3-82.5-41.4-145.7-35.2C1451.9,1156,1399.4,1178.2,1377.3,1191.4z"/>
</g>
<g>
	<path class="st4" d="M1434,1226.3c-19.6,4.4-36.7,18.9-44.3,37.5c-7.5,18.7-5.3,41,5.7,57.8c19.3-18.8,36.7-39.6,51.9-61.8
		c8.6-12.5,16.7-29,9.1-42.2"/>
</g>
</svg>
